/* XPM */
static char *db6b944f9bb54551a27391b1d8ec75b5L8hvy3A293rJcqPF[] = {
/* columns rows colors chars-per-pixel */
"64 64 32 1 ",
"  c black",
". c gray11",
"X c #202020",
"o c #282828",
"O c #2C2C2C",
"+ c gray19",
"@ c #343434",
"# c gray22",
"$ c gray25",
"% c #484848",
"& c #4C4C4C",
"* c gray33",
"= c gray36",
"- c #646464",
"; c gray44",
": c #D40000",
"> c #FC0000",
", c #FC2020",
"< c #FC4040",
"1 c #FC5C5C",
"2 c #FC7C7C",
"3 c gray55",
"4 c #989898",
"5 c gray66",
"6 c #FC9C9C",
"7 c #FCB8B8",
"8 c #C0C0C0",
"9 c #FCD8C4",
"0 c #FCD8D8",
"q c #FCE8DC",
"w c #ECECEC",
"e c gray99",
/* pixels */
"................................................................",
"%%%%%%%%%%%%&%&%%%%%%%%&%%%%%%%%%%&%%%%%%%%%%%%%%&%&%%%%%%%%&%%%",
"%%%%&%%%%%%%%&%&%%%%%%%%&%%%%%%%%%%&%%%%%&%%%%%%%%&%&%%%%%%%%&%%",
"%%%&%&%&%%%&%%&%%%%%&%%%%&%%%%%&%%%%&%%%&%&%&%%%&%%&%%%%%&%%%%&%",
"%%%%%%&%&%&%%%%%%%%%&&%%&%%%%%%&&%%&%%%%%%%&%&%&%%%%%%%%%&&%%&%%",
"#%&%%%####################################################&%%%&#",
"-%%&%%#::::::::::::::::::::::::::::::::::::::::::::::::::-%%%&&#",
"-%&%%%#:>>>>>>>>>>>>>>>>>>>>>>>>>>>>>>>>>>>>>>>>>>>>>>>>>-&%%%%#",
"-&%%%&#:>>>>>>>>>>>>>>>>>>>>>>>>>>>>>>>>>>>>>>>>>>>>>>>>>-%%%%%#",
"-%&%%%#:>>>>>>>>>>>>>>>>>>>>>>>>>>>>>>>>>>>>>>>>>>>>>>>>>-%%%%%#",
"-&%%%%#:>>>>>>>>>>>>>>>>>>>>>>>>>>>>>>>>>>>>>>>>>>>>>>>>>-%%%%%#",
"-%%%%%#:>>>>>>>>>>>>>>>>>>>>>>>>>>>>>>>>>>>>>>>>>>>>>>>>>-&%&%%#",
"-&%%%%#:>>>>>>>>>>>>>>>>>>>>>>>>>>>>>>>>>>>>>>>>>>>>>>>>>-%&%&%#",
"-%&%%%#:>>>>>>>>>>>>>>>>>>>>>>>>>>>>>>>>>>>>>>>>>>>>>>>>>-%%&%%#",
"-%%%&&#:>>>>>>>>>>>>>>>>>>>>>>>,,>>>>>>>>>>>>>>>>>>>>>>>>-&&%%%#",
"-%%&%%#:>>>>>>>>>>>>>>>>>>,2700000072,>>>>>>>>>>>>>>>>>>>-%%%&%#",
"-%&%&%#:>>>>>>>>>>>>>>>>17eeeee8;eeeee71>>>>>>>>>>>>>>>>>-%%%%&#",
"-%%&%&#:>>>>>>>>>>>>>>,7eeeeee8  =eeeeee7,>>>>>>>>>>>>>>>-%%%%%#",
"-%%%%%#:>>>>>>>>>>>>>1eeeeeee8    =eeeeeee1>>>>>>>>>>>>>>-%%%%&#",
"-%%%%%#:>>>>>>>>>>>>2eeeeeee8     .=eeeeeee2>>>>>>>>>>>>>-%%%&%#",
"-%%%%%#:>>>>>>>>>>>2eeeeeee8     X3eeeeeeeee2>>>>>>>>>>>>-&%%%&#",
"-%%%%&#:>>>>>>>>>>1eeeeeee8     X3eeeeeeeeeee1>>>>>>>>>>>-%%%&%#",
"-&&%%%#:>>>>>>>>>,eeeeeee8     X3eeee8;eeeeeee,>>>>>>>>>>-%%&%%#",
"-&%%%&#:>>>>>>>>>7eeeeee8     X3eeee8  -eeeeee7>>>>>>>>>>-%%%&%#",
"-%%%%%#:>>>>>>>><eeeeee8     X3eeee8    =eeeeee<>>>>>>>>>-%%%%%#",
"-%%%&&#:>>>>>>>>6eeeee8      =eeee8      =eeeee6>>>>>>>>>-&%%%%#",
"-&%&%%#:>>>>>>>>eeeeeee5     .=ee8        =eeeee>>>>>>>>>-%%%%%#",
"-%&%%%#:>>>>>>>2eeeeeeee5     .=8          *eeee2>>>>>>>>-%%%&%#",
"-%%%%%#:>>>>>>>7eee4eeeee5     .      X     *eee7>>>>>>>>-%%&%&#",
"-%%%%&#:>>>>>>>0ee8 3eeeee5          35O     *ee0>>>>>>>>-%&%%%#",
"-%%%%%#:>>>>>>>0e8   3eeeee5        3ee5O     *e0>>>>>>>>-%%%%%#",
"-%%%%%#:>>>>>>>08     3eeeee3      =eeee5O     30>>>>>>>>-&%%%&#",
"-%%%%%#:>>>>>>>05+     3eee8.      .=eeee5+   3e0>>>>>>>>-%%%&&#",
"-&&%%%#:>>>>>>>0e5@     3e8.        .=eeee5+ 3ee0>>>>>>>>-%%%%%#",
"-&%%%&#:>>>>>>>7ee5@     3.          .=eeee53eee7>>>>>>>>-%%%%%#",
"-%%%%%#:>>>>>>>2eee5@          35     .=eeeeeeee2>>>>>>>>-%%%%%#",
"-%%%&%#:>>>>>>>,eeee5#        3ee5      =eeeeeee,>>>>>>>>-&%%%%#",
"-&%&%%#:>>>>>>>>7eeee5#      3eeee5      =eeeee7>>>>>>>>>-%%%%%#",
"-%&%%%#:>>>>>>>>1eeeee5#    3eeee8$     3eeeeee1>>>>>>>>>-%%%&%#",
"-%%%%%#:>>>>>>>>>9eeeee5$  4eeee8$     3eeeeee9>>>>>>>>>>-%%&%&#",
"-%%%%&#:>>>>>>>>><eeeeee5$4eeee8$     3eeeeeee<>>>>>>>>>>-&&%%%#",
"%%%%%%#:>>>>>>>>>>2eeeeeeweeee8#     3eeeeeee2>>>>>>>>>>>-%%%%%%",
"%%&%%%#:>>>>>>>>>>>6eeeeeeeee8#     3eeeeeee6>>>>>>>>>>>>-&%%%&%",
"%%%&%%#:>>>>>>>>>>>>7eeeeeee8#     3eeeeeee7>>>>>>>>>>>>>-%%%&&%",
"%%&%%%#:>>>>>>>>>>>>>6eeeeee5%    3eeeeeee6>>>>>>>>>>>>>>-&%%%%%",
"%&%%%&#:>>>>>>>>>>>>>>1qeeeee5%  3eeeeeeq1>>>>>>>>>>>>>>>-%%%%%%",
".%&%%%#:>>>>>>>>>>>>>>>>2qeeee5%3eeeeeq2>>>>>>>>>>>>>>>>>-%%%%%.",
"*&%%%%#:>>>>>>>>>>>>>>>>>>>2700000072>>>>>>>>>>>>>>>>>>>>-%%%%%.",
"*%%%%%#:>>>>>>>>>>>>>>>>>>>>>>>>>>>>>>>>>>>>>>>>>>>>>>>>>-&%&%%.",
"*&%%%%#:>>>>>>>>>>>>>>>>>>>>>>>>>>>>>>>>>>>>>>>>>>>>>>>>>-%&%&%.",
"*%&%%%#:>>>>>>>>>>>>>>>>>>>>>>>>>>>>>>>>>>>>>>>>>>>>>>>>>-%%&%%.",
"*%%%&&#:>>>>>>>>>>>>>>>>>>>>>>>>>>>>>>>>>>>>>>>>>>>>>>>>>-&&%%%.",
"*%%&%%#:>>>>>>>>>>>>>>>>>>>>>>>>>>>>>>>>>>>>>>>>>>>>>>>>>-%%%&%.",
"*%&%&%#:>>>>>>>>>>>>>>>>>>>>>>>>>>>>>>>>>>>>>>>>>>>>>>>>>-%%%%&.",
"*%%&%&#:>>>>>>>>>>>>>>>>>>>>>>>>>>>>>>>>>>>>>>>>>>>>>>>>>-%%%%%.",
"*%%%%%#:>>>>>>>>>>>>>>>>>>>>>>>>>>>>>>>>>>>>>>>>>>>>>>>>>-%%%%&.",
"*%%%%%#:>>>>>>>>>>>>>>>>>>>>>>>>>>>>>>>>>>>>>>>>>>>>>>>>>-%%%&%.",
"*%%%%%#=--------------------------------------------------&%%%&.",
"*%%%%&%%%&%&%&%%%%%%%%%&&%%&%%%%%%&&%%&%%%%%%%&%&%&%%%%%%%%%%&%.",
"*&&%%%&%&%&%%%&%%&%%%%%&%%%%&%%%%%&%%%%&%%%&%&%&%%%&%%&%%%%%&%%.",
"*&%%%&%&%%%%%%%%&%&%%%%%%%%&%%%%%%%%%%&%%%%%&%%%%%%%%&%&%%%%%&%.",
"*%%%%%%%%&%%%%%&%%&%%%&%&%&%%%&%%%%&%%%%%&%%%%&%%%%%&%%&%%%%%%%.",
"#...............................................................",
"oooooooooooooooooooooooooooooooooooooooooooooooooooooooooooooooo"
};
