/* XPM */
static char *_1f1b6e6251340efc8120702a5316291i15rP5uATsLysYY0[] = {
/* columns rows colors chars-per-pixel */
"64 64 30 1 ",
"  c black",
". c #181818",
"X c #28200C",
"o c #302410",
"O c #382C14",
"+ c #202020",
"@ c #212921",
"# c #282828",
"$ c #313929",
"% c gray19",
"& c gray22",
"* c #403018",
"= c #483818",
"- c #543C1C",
"; c #4C4436",
": c #744C28",
"> c gray25",
", c #484848",
"< c #4C4C4C",
"1 c #524A42",
"2 c gray33",
"3 c #646464",
"4 c gray44",
"5 c #7C7C7C",
"6 c gray55",
"7 c #989898",
"8 c #B4B4B4",
"9 c #C0C0C0",
"0 c #D0D0D0",
"q c gainsboro",
/* pixels */
" XXXXXXXXXXXXooXXo.X#oooXooXXX  XXXXXoXooXoooXXXX  XXXXo##XXXX  ",
" X..OO*$OO##o*=*$$$==$=*$$$$.X  XX+o$$==$-=;$$o.X  XX+#$*$$O#.X ",
" X$$$*:::::::::::::::::::::::::::::::::::::::::::::::::::o#$$*XX",
" X;1;$:==================================================o$&$$oX",
" X;1&o:=oooooooooooooooooooooooooooooooooooooooooooooooo=o@;;;XX",
" X;;*#:=o7777777777777777777777777777777777777777777777:=o@$$&X ",
" .;;#O:=o7888888888888989987766788888888888888888888899:=o@$*;XX",
" $;;*#:=o7888888888888986,++++++#,689998888888888888899:=o@$$$oX",
" O$oO#:=o78888888888887&++++++#%+++,7999888888888988998:=o@==$X ",
" XOOoo:=o7888888888995+++++++##%++++%599998888889999989:=oXO*#XX",
" X##oX:=o788888889995+++++++###++++##+39998989999999999:=o ..#XX",
" X##..:=o78888889998%+++++#%>&%%++++##+3899989999999999:=o .X+XX",
" X++..:=o7888998998,&%%+++++#%%#++++%+##299999999999999:=oX...XX",
" XXX.X:=o788998899<%<23<,>%%#++++++#++###79999999999999:=oXXXX  ",
"     X:=o788999996+<333333332>%+++++##+++39989999999999:=o      ",
"      :=o799999993%3334444444433&++++++%%#8999999999999:=o      ",
"XXXXX :=o79999998%<443445455555543>#+####%5999999999999:=o XXXX ",
"oooXX :=o79999997%344444544555445543%%,##%>999999000090:=o O$*XX",
"$-=*oX:=o79999994>4444555444444455564%>3%%&799909000000:=o $&=#X",
"$;;;*X:=o7999999,>33445544444445544553#<,%#599909900099:=oXo=#@.",
"#$$$*X:=o7999999%>334555656556567545532&3%#499999090000:=oOo*$$O",
"X*o#oX:=o7999999>,345666666565676666633>42%509000000000:=oXO=#o.",
"..oO# :=o7999000<<346675555453333456632<<3%500900000000:=o $$#.X",
".ooO#X:=o79990003<3556533<22<&%%%&&>,><333%500000000000:=o $$#oX",
".OOooX:=o79990006<43&>>%##,34&%&>%+%>><44<&569000000000:=o.*-+oX",
"..oO#X:=o7000000935<,%&&&&,67>,263,3%>464<,&,7000000000:=oX=-$oo",
".oOOOX:=o80900000363#,<&33467336543,23663<><36000000000:=o o*-*$",
"#$#+. :=o70000084355<33223667334554447752<,437000000000:=o .####",
"+.... :=o8000008>33644533556723454457755,<,438000000000:=o ....#",
"..XXX :=o89000083235545356467,&476677553,,<330000000000:=oX..XX.",
"XXXXX :=o800000074<3565575357>>,66665443,>,250000000000:=oXXXXXX",
"      :=o800000095,3345674556<,,56666343,<2570000000000:=o      ",
"      :=o80000000723335765465<%,&6554333>,3600000000000:=o      ",
"ooooo.:=o80000000843335655#%%#+#<643333<>,3800000000000:=o  ..oo",
";;;&*O:=o80000000054456656%%%+#%,6543342>39000000000000:=o o$$&$",
";;$$$*:=o8000000004455556,#%%###%466443<,50000000000000:=o .#$$&",
";&$$$*:=o80000000007656672##%&%%26764332,70000000000000:=o .#$$&",
"$$*O#$:=o800000000q0656774%%,><<,<55333,>80000000000000:=o Xo$$#",
"**OOO*:=o80000000q007677523454356534323,<90000000000000:=o XO*$$",
"O*OO*O:=o8000q0q000q86677765<34676353<32200000000000000:=o Xo$$#",
"#$=Oo#:=o800qq00qqqqq6677774332454453<<<49qq0000000000q:=o Xoo##",
"#####O:=o8000qq00qqqq765676656554443,%&4647qq0000000000:=o XX..X",
"#####O:=o8000q00qqqq093456677766543>&&578<>700000000000:=o XX..X",
"O$#oo#:=o8000000000q0063<46666653,%%&580q<<<9qq0000000q:=o X.$$$",
"&==-$#:=o8000qqqqqqqqq762<24443<>%#&700q8,233qqqqqq000q:=o XoO$&",
"*=*OOO:=o80000qqqqqqqq66334,&&&%%%>7qqqq4<33350qqqqqqqq:=o XOo$$",
"$*OO*#:=o8000qqqqqqqqq9562,,,>,,>59qqqq9<<345360qqqqqqq:=o .#O##",
"$O*$&*:=o80000qqqqqqqq8045<&%%&28qqqqqq5<3<353478qqqqqq:=o .#o$&",
"$O$$;*:=o800000qqqqqq05qq73&%>70qqqqqq9<<2<3335699880qq:=o .#O&1",
"-#$&$o:=o800qqq0qqqqq53qqq0>%6qqqqqqqq5<433536556qq089q:=o .#O&1",
"+.$$#.:=o800qq0qqqqq6538qq0%%,0qqqqqq0324<3546556qqqqq0:=o .#o##",
".++...:=o800qqqqqqq64537qq7%%%4qqqqqq6<53344666580qqqqq:=o X....",
"XXXX  :=o800098776445456qq3%%%76qqqq0336366576769qq0qq0:=o  XXXX",
"      :=o808767535555566q9&&&2079qqq6477377777770qq0900:=o      ",
"      :=o897880876666676q7&&<,0q9qq8677768778779qqqqqqq:=o      ",
"XXXXX :=o7800q9777777776q523437q0007897678888870qqqqqqq:=o    XX",
"&$$=*.:=o8000077777777770<55652qq0890q7880009070qqqqqqq:=o  Xo=-",
"&;##$$:=o800087777777777846665,8q08qqq000qqq0q80qqqqqqq:=o  .#$&",
"#$##*$:=o80007777777778775755735q00qqqqqqqqqqq80qqqqqqq:=o  +$##",
"oo$$o#:=o:::::::::::::::::::::::::::::::::::::::::::::::=o  .###",
"oO####:==================================================o X.#OO",
"#O####:ooooooooooooooooooooooooooooooooooooooooooooooooooo X.#**",
"####.XX    XXXXXX    XX XXXXXXX   XX XXX   X XXXXXX..XXX   X+XX.",
"X XX         XXXX     X XX X       XXXXXXXXXXXXX   XXX       XXX"
};
